Coordinates
version=1
nRows=17
nColumns=36
inDegrees=yes

Units are S.I. units (second, meters, Newtons, ...)
If the header above contains a line with 'inDegrees', this indicates whether rotational values are in degrees (yes) or radians (no).

endheader
time	pelvis_tilt	pelvis_list	pelvis_rotation	pelvis_tx	pelvis_ty	pelvis_tz	hip_flexion_r	hip_adduction_r	hip_rotation_r	knee_angle_r	knee_angle_r_beta	ankle_angle_r	subtalar_angle_r	mtp_angle_r	hip_flexion_l	hip_adduction_l	hip_rotation_l	knee_angle_l	knee_angle_l_beta	ankle_angle_l	subtalar_angle_l	mtp_angle_l	lumbar_extension	lumbar_bending	lumbar_rotation	arm_flex_r	arm_add_r	arm_rot_r	elbow_flex_r	pro_sup_r	arm_flex_l	arm_add_l	arm_rot_l	elbow_flex_l	pro_sup_l
      6.55000000	     -5.33591758	     -3.06163920	      5.61543893	      0.64777577	      0.86130404	      0.02120960	     57.22863699	     -2.73196181	     -1.64903860	     40.42590198	      0.70556509	     10.65221499	     -4.17509916	     -7.49999987	     33.92374528	      7.80793701	      5.83119205	     43.99565743	      0.76786908	     21.67015498	    -20.37517792	     -7.49999987	    -26.03882723	      1.37163852	     -3.75939932	     52.55477952	     -0.05690653	     72.29487826	    118.27099564	    101.71976617	     64.94242175	     -0.71301771	     78.56573077	    116.83106059	    102.57837083
      6.56666670	     -4.75750786	     -1.91805565	      6.35200151	      0.64502349	      0.85060141	      0.02034643	     59.61094837	     -4.06032546	     -0.74082443	     42.12618280	      0.73524059	      8.92203312	     -5.25998907	     -7.49999987	     35.83102901	      8.99807274	      4.58174367	     47.40204618	      0.82732178	     23.95856945	    -19.41509452	     -7.49999987	    -28.14348543	     -0.05350091	     -4.42334197	     53.77243547	     -0.06921817	     72.03234229	    119.48090203	    102.04075737	     67.90912659	      0.34939680	     79.80180529	    116.63287227	    102.60684431
      6.58333330	     -4.10670937	     -0.52709872	      7.35423935	      0.63962486	      0.84200071	      0.01907964	     61.76532719	     -5.64376522	      0.53904879	     43.61570157	      0.76123760	      6.69383997	     -6.72971203	     -7.49999987	     37.59383532	     10.51900912	      3.51751864	     50.64305702	      0.88388809	     25.57535050	    -18.83595629	     -7.49999987	    -30.42618512	     -1.52146279	     -5.56684640	     55.33202369	     -0.03190800	     71.51084777	    120.49808179	    102.42440712	     70.93434906	      1.23435362	     80.43230121	    116.41835446	    102.68625677
      6.60000000	     -3.36075996	      1.05679493	      8.53338863	      0.63208310	      0.83751619	      0.01839473	     63.54024365	     -7.36368350	      2.13605585	     44.79654076	      0.78184713	      4.20286043	     -8.35182724	     -7.49999987	     39.08608995	     12.23916204	      2.50066941	     53.62431299	      0.93592082	     26.71597590	    -18.39140209	     -7.49999987	    -33.03477344	     -2.96099245	     -6.88827960	     57.04028485	     -0.24990633	     70.59675617	    121.07495030	    102.68211997	     73.97712208	      1.91836148	     80.95665024	    115.92509365	    102.63007536
      6.61666670	     -2.60579045	      2.79034534	      9.84476482	      0.62364630	      0.83539930	      0.01866308	     64.98458876	     -9.20287477	      3.89072169	     45.61424075	      0.79611869	      1.69186690	     -9.73830940	     -7.49999987	     40.37484612	     14.15197932	      1.54857629	     56.29296346	      0.98249756	     27.17559202	    -18.25180775	     -7.49999987	    -35.90925433	     -4.21118553	     -8.24436657	     58.78348888	     -0.76677788	     69.55872636	    121.16733552	    102.82787064	     76.72109705	      2.23045051	     81.37243771	    115.25024713	    102.46438002
      6.63333330	     -1.94628259	      4.56907762	     11.22488144	      0.61574304	      0.83290302	      0.01954507	     66.21807739	    -11.12177566	      5.61594622	     46.09741686	      0.80455170	     -0.59031087	    -10.71157000	     -7.49999987	     41.55217245	     16.15368230	      0.68639574	     58.63044072	      1.02329423	     27.02203170	    -18.38449972	     -7.49999987	    -38.78387037	     -5.20614151	     -9.60842943	     60.54043413	     -1.31750291	     68.78002008	    120.96214227	    102.87361336	     79.02910712	      2.29920527	     81.52878088	    114.54824050	    102.29073136
      6.65000000	     -1.33754344	      6.48310692	     12.42475314	      0.60894836	      0.82832837	      0.02064257	     67.25776099	    -12.91401186	      7.57996306	     46.38205959	      0.80951965	     -2.86686903	    -11.64893062	     -7.49999987	     42.55503164	     18.14121444	     -0.32319872	     60.62270725	      1.05806584	     26.31026399	    -18.87239163	     -7.49999987	    -41.59314034	     -6.22097617	    -10.90399288	     62.52214354	     -1.74600817	     68.09074588	    120.86784104	    102.85679015	     81.66639193	      2.46712580	     81.77260440	    113.90572959	    102.00184298
      6.66666670	     -0.96443136	      8.27795768	     13.53663500	      0.60399847	      0.82039006	      0.02098196	     68.40866905	    -14.61780870	      9.46389501	     46.71796215	      0.81538226	     -4.74908924	    -12.28945086	     -7.49999987	     43.68813406	     20.04922085	     -1.20194507	     62.53628943	      1.09146415	     25.46765147	    -19.47420059	     -7.49999987	    -43.81392784	     -7.04802833	    -12.37068532	     64.60197056	     -1.72125855	     67.55374123	    121.16267378	    102.79023998	     84.29577996	      2.90767237	     81.50598771	    113.37148900	    101.67532436
      6.68333330	     -0.76374982	     10.05224551	     14.39305025	      0.60105686	      0.81058167	      0.02099801	     69.79746404	    -16.03983732	     11.59526873	     47.34515665	      0.82632887	     -6.33220012	    -12.85985392	     -7.49999987	     44.92786257	     21.82124457	     -2.17271542	     64.38174438	      1.12367342	     24.50984621	    -20.23294277	     -7.49999987	    -45.51036502	     -7.98314057	    -14.07370895	     66.44560996	     -1.43899936	     67.15679313	    121.73225974	    102.65200931	     87.00303173	      3.40394089	     81.36969041	    113.23020590	    101.20780185
      6.70000000	     -0.79048355	     11.70655139	     15.16986930	      0.59807939	      0.80190043	      0.02030575	     71.43877755	    -17.28553934	     13.73921259	     48.15459178	      0.84045618	     -7.50255817	    -13.11393490	     -7.49999987	     46.36089908	     23.47920760	     -3.17375948	     66.14145761	      1.15438621	     23.55837212	    -21.03257383	     -7.49999987	    -46.78869700	     -8.79250371	    -15.83820013	     67.65493227	     -1.17862506	     67.13355894	    122.04241785	    102.27029872	     89.15244898	      3.68757800	     81.48432607	    113.36329283	    100.23543498
      6.71666670	     -1.00986177	     13.15971621	     15.97553573	      0.59351045	      0.79591358	      0.01868338	     73.19929641	    -18.44529714	     15.69736460	     48.97519016	      0.85477832	     -8.43610660	    -13.13975708	     -7.49999987	     47.96085639	     25.04428738	     -4.11788831	     67.79059057	      1.18316901	     22.73315979	    -21.67900706	     -7.49999987	    -47.84376642	     -9.27562126	    -17.38070436	     68.49693871	     -1.34305688	     67.65775280	    122.10970772	    100.83611755	     90.36495427	      3.56924402	     81.57242241	    113.60787664	     98.24922874
      6.73333330	     -1.35027285	     14.55143887	     16.73852653	      0.58857959	      0.79242674	      0.01752875	     74.96253321	    -19.54812294	     17.50442678	     49.69561269	      0.86735207	     -9.14432220	    -12.73960508	     -7.49999987	     49.60340826	     26.48423604	     -5.21293866	     69.23290925	      1.20834222	     21.65442424	    -22.39352903	     -7.49999987	    -48.85773262	     -9.63146522	    -18.70818851	     69.31441751	     -1.70128409	     68.05039764	    121.77951758	     99.89149139	     91.35927998	      3.19493438	     81.77194028	    113.71518608	     96.84256005
      6.75000000	     -1.80442290	     15.67802710	     17.46590303	      0.58475463	      0.79001916	      0.01731507	     76.64586552	    -20.55002247	     18.94436510	     50.22483016	      0.87658865	     -9.69269643	    -12.08127453	     -7.49999987	     51.27198414	     27.67879777	     -6.21283766	     70.50587566	      1.23055967	     20.36969875	    -23.19620331	     -7.49999987	    -49.60325702	     -9.70500118	    -19.79677018	     70.24668568	     -1.88682886	     68.11316514	    121.30510525	    102.91637411	     92.32438490	      2.71671621	     81.91195546	    113.84634313	     96.11860936
      6.76666670	     -2.26798933	     16.49992124	     18.03107385	      0.58184656	      0.78755945	      0.01732556	     78.16418358	    -21.30021049	     20.05941114	     50.58347423	      0.88284817	    -10.18445813	    -11.40019199	     -7.49999987	     52.86859383	     28.48133850	     -7.13459148	     71.65655560	      1.25064283	     19.16644159	    -23.72293416	     -7.49999987	    -50.11560234	     -9.63780137	    -20.61225786	     71.31012747	     -1.97501266	     68.44164147	    121.13229231	    103.40437293	     93.18145294	      2.42769912	     81.84627533	    113.90964672	     96.03214593
      6.78333330	     -2.67479262	     17.07490392	     18.43602928	      0.57899390	      0.78515813	      0.01716222	     79.50712592	    -21.82911788	     20.88996415	     50.83997470	      0.88732495	    -10.46803581	    -10.62755899	     -7.49999987	     54.33085197	     28.96688634	     -7.94237277	     72.66732034	      1.26828400	     17.99082920	    -24.02325191	     -7.49999987	    -50.44437557	     -9.45837453	    -21.34827592	     72.34418670	     -1.80756694	     69.05300236	    120.76212055	    103.46199961	     93.81400368	      2.06906652	     81.71890489	    114.00037330	     97.26675358
      6.80000000	     -3.04654001	     17.48722235	     18.69408889	      0.57582951	      0.78318918	      0.01782837	     80.70959961	    -22.17815419	     21.48274581	     50.98012585	      0.88977105	    -10.59898296	     -9.57460623	     -7.49999987	     55.67717965	     29.24035354	     -8.64799726	     73.50172561	      1.28284712	     16.93750215	    -24.18253424	     -7.49999987	    -50.71274472	     -9.35578304	    -21.93910211	     73.06404290	     -1.54306553	     69.64065526	    120.28827232	    104.09823213	     94.30853911	      1.78598281	     81.94854567	    114.09141920	     96.51349145
      6.81666670	     -3.34756205	     17.83153848	     18.87130486	      0.57228823	      0.78127665	      0.01964041	     81.75067675	    -22.43622188	     21.92074758	     51.04510204	      0.89090510	    -10.59275285	     -8.37086781	     -7.49999987	     56.89842422	     29.38877075	     -9.28114611	     74.19788976	      1.29499747	     15.86580872	    -24.33507402	     -7.49999987	    -50.97137771	     -9.28461752	    -22.56042961	     74.05096431	     -1.13583123	     70.83599202	    119.44703151	     96.59582064	     94.93882518	      1.34247817	     82.69779181	    114.38060947	     89.66516573
